<svg width="91" height="91" viewBox="0 0 91 91" fill="none" xmlns="http://www.w3.org/2000/svg">
    <circle cx="45.5" cy="45.5" r="45.5" fill="#FFD700"/>
    <g id="Union 1" transform="translate(17,28)">
        <path id="Vector" d="M50 3C47.8 1.8 45 1.3 41.6 1.3H30.9L30.8 1.8L31.4 2.1C32.5 2.6 32.9001 3.5 32.7001 4.8C32.4001 6.7 32 8.6 31.7001 10.6C31.3001 12.6 31 14.5 30.7001 16.2L30.6 17H16V19C18.6 19 19.9 20.2 19.6 22.4C19.5 23.3 19.3001 24.3 19.2001 25.3C19 26.6 18.8001 27.8 18.6 28.9L18.3 30.4C18.1 31.4 17.8 32.1 17.3 32.4C16.8 32.7 16.2 32.9 15.3 32.9C13.8 32.9 12.4 32.4 11.2 31.4C10 30.4 9.00005 28.9 8.30005 27C7.60005 25 7.20005 22.7 7.20005 20C7.20005 16.4 7.70005 13.2 8.80005 10.4C9.90005 7.6 11.3 5.4 13.2 3.8C15.1 2.2 17.3001 1.4 19.7001 1.4C21.3001 1.4 22.5 1.7 23.2001 2.3C23.9001 2.9 24.6 3.9 25.1 5.4L26.9 10.4H27.4L28.6 2.9C25.7001 1.3 22.6 0.5 19.2001 0.5C16.5 0.5 14 1 11.7 2C9.40005 3 7.40005 4.3 5.70005 6.1C4.00005 7.9 2.70005 9.9 1.70005 12.3C0.800049 14.6 0.300049 17.2 0.300049 19.9C0.300049 24.3 1.60005 27.8 4.20005 30.2C6.80005 32.6 10.5 33.8 15.1 33.8C17 33.8 18.6 33.6 20 33.2C21.4 32.8 22.9 32.4 24.3 31.8L26.1 22.1C26.3001 20.9 26.8001 19 30.1 19L28.1 29.4C28 30.1 27.7 30.7 27.4 31.1C27 31.5 26.6 31.9 25.9 32.2L25.1 32.5V33H37.4001C40 33 42.5 32.6 44.8 31.8C47.1 31 49.2001 29.8 50.9001 28.2C52.7001 26.6 54.1 24.7 55.1 22.4C56.1 20.1 56.6 17.6 56.6 14.7C56.6 12.1 56 9.9 54.9001 7.8C53.9001 5.8 52.2001 4.2 50 3ZM48.2001 23.4C47.2001 26.1 45.7001 28.2 43.8 29.7C41.9 31.2 39.5 32 36.8 32H34.4001C34.8001 29.7 35.1 27.4 35.6 25C36 23 36.4001 20.9 36.7001 18.9H45V16.9H37L39.8 2.2H41.1C43.9 2.3 46.1 3.4 47.6 5.3C49.1 7.2 49.8 10.2 49.8 14.1C49.8 17.7 49.3 20.7 48.2001 23.4Z" fill="black"/>
    </g>
</svg>
